<svg width="32" height="32" viewBox="0 0 32 32" fill="none" xmlns="http://www.w3.org/2000/svg">
<circle cx="16" cy="16" r="16" transform="rotate(-90 16 16)" fill="white"/>
<circle cx="16" cy="16" r="15.2727" transform="rotate(-90 16 16)" stroke="black" stroke-opacity="0.1" stroke-width="1.45455"/>
<path d="M21.1218 16.8261L21.1218 16.8261C21.3497 17.054 21.3497 17.4235 21.1218 17.6513L21.1218 17.6513C20.894 17.879 20.5246 17.8791 20.2967 17.6513C20.2967 17.6513 20.2967 17.6513 20.2966 17.6513L16.0339 13.3883L15.8917 13.246L15.7494 13.3883L11.4866 17.6511C11.2587 17.879 10.8893 17.8789 10.6616 17.6512L10.6615 17.6511C10.4336 17.4233 10.4335 17.0539 10.6616 16.826L10.6616 16.826L15.4792 12.0083C15.4792 12.0083 15.4792 12.0082 15.4792 12.0082C15.5931 11.8944 15.742 11.8376 15.8917 11.8376C16.0412 11.8376 16.1902 11.8946 16.3041 12.0084C16.3041 12.0084 16.3041 12.0084 16.3041 12.0084L21.1218 16.8261Z" fill="black" stroke="black" stroke-width="0.402379"/>
</svg>
