<svg width="73" height="82" viewBox="0 0 73 82" fill="none" xmlns="http://www.w3.org/2000/svg">
<rect x="0.5" y="1.03125" width="72" height="79.7495" stroke="black"/>
<path d="M53.619 39.1313L48.8092 31.7037C48.4364 31.128 47.8043 30.7843 47.1185 30.7843H25.897C25.2121 30.7843 24.5807 31.1271 24.2077 31.7014L19.3829 39.1299C18.8899 39.8889 18.966 40.891 19.5682 41.5668L34.9953 58.8865C35.3771 59.3151 35.9253 59.5611 36.4993 59.5611C36.4992 59.5611 36.4994 59.5611 36.4993 59.5611C37.0733 59.5611 37.6216 59.3152 38.0035 58.8866L53.4323 41.5659C54.0336 40.8909 54.1103 39.8898 53.619 39.1313ZM46.1441 32.5111L42.0991 38.7662L38.0516 32.5111H46.1441ZM40.5121 39.4925H32.4865L36.4993 33.2911L40.5121 39.4925ZM34.947 32.5113L30.9107 38.7492L26.8757 32.5113H34.947ZM25.279 33.2224L29.3348 39.4925H21.2066L25.279 33.2224ZM21.5713 41.2195H30.2619L34.857 56.1349L21.5713 41.2195ZM36.4993 55.6002L32.0689 41.2195H40.9297L36.4993 55.6002ZM38.1416 56.1354L42.7368 41.2196H51.4281L38.1416 56.1354ZM43.686 39.4925L47.7381 33.2267L51.7955 39.4925H43.686Z" fill="#F21C22"/>
<path d="M17.0142 39.4926H15.2585C14.7817 39.4926 14.395 39.8791 14.395 40.356C14.395 40.8329 14.7817 41.2195 15.2585 41.2195H17.0142C17.491 41.2195 17.8777 40.8329 17.8777 40.356C17.8777 39.8791 17.491 39.4926 17.0142 39.4926Z" fill="#F21C22"/>
<path d="M57.7418 39.4926H55.9861C55.5093 39.4926 55.1226 39.8791 55.1226 40.356C55.1226 40.8329 55.5093 41.2195 55.9861 41.2195H57.7418C58.2186 41.2195 58.6053 40.8329 58.6053 40.356C58.6053 39.8791 58.2186 39.4926 57.7418 39.4926Z" fill="#F21C22"/>
<path d="M52.1418 24.73C51.8045 24.3928 51.2579 24.3928 50.9205 24.73L48.0523 27.5982C47.7151 27.9354 47.7151 28.4822 48.0523 28.8193C48.221 28.988 48.442 29.0723 48.663 29.0723C48.884 29.0723 49.1049 28.9879 49.2735 28.8193L52.1418 25.9511C52.4789 25.6139 52.4789 25.0673 52.1418 24.73Z" fill="#F21C22"/>
<path d="M24.9853 27.5827L22.1171 24.7144C21.78 24.3772 21.2335 24.3772 20.8959 24.7144C20.5587 25.0516 20.5587 25.5984 20.8959 25.9356L23.7641 28.8038C23.9328 28.9724 24.1537 29.0567 24.3747 29.0567C24.5957 29.0567 24.8166 28.9723 24.9853 28.8038C25.3225 28.4667 25.3225 27.9198 24.9853 27.5827Z" fill="#F21C22"/>
<path d="M36.5221 18.251C36.0453 18.251 35.6586 18.6376 35.6586 19.1145V24.7416C35.6586 25.2185 36.0452 25.6051 36.5221 25.6051C36.9989 25.6051 37.3855 25.2185 37.3855 24.7416V19.1145C37.3855 18.6376 36.9989 18.251 36.5221 18.251Z" fill="#F21C22"/>
<path d="M37.1321 27.0521C36.9716 26.8915 36.7488 26.7991 36.5217 26.7991C36.2946 26.7991 36.0718 26.8915 35.9112 27.0521C35.7506 27.2127 35.6582 27.4355 35.6582 27.6626C35.6582 27.8905 35.7505 28.1124 35.9112 28.273C36.0718 28.4345 36.2946 28.526 36.5217 28.526C36.7488 28.526 36.9716 28.4345 37.1321 28.273C37.2936 28.1124 37.3852 27.8897 37.3852 27.6626C37.3852 27.4355 37.2936 27.2128 37.1321 27.0521Z" fill="#F21C22"/>
</svg>
