<svg width="76" height="76" viewBox="0 0 76 76" fill="none" xmlns="http://www.w3.org/2000/svg">
<rect x="2.47487" y="37.519" width="49.5599" height="49.5599" transform="rotate(-45 2.47487 37.519)" stroke="#E30909" stroke-width="3.5"/>
<path d="M38 52C37.6014 52 37.2171 51.8551 36.9176 51.5918C35.7864 50.5992 34.6959 49.6664 33.7337 48.8436L33.7288 48.8393C30.9079 46.4268 28.472 44.3434 26.7771 42.2911C24.8825 39.9967 24 37.8214 24 35.4449C24 33.1359 24.7889 31.0058 26.2213 29.4466C27.6707 27.8689 29.6595 27 31.822 27C33.4383 27 34.9185 27.5128 36.2214 28.5241C36.8789 29.0345 37.4749 29.6592 38 30.3879C38.5253 29.6592 39.1211 29.0345 39.7788 28.5241C41.0817 27.5128 42.5619 27 44.1782 27C46.3405 27 48.3295 27.8689 49.779 29.4466C51.2113 31.0058 52 33.1359 52 35.4449C52 37.8214 51.1177 39.9967 49.2231 42.2909C47.5282 44.3434 45.0925 46.4266 42.272 48.8389C41.3082 49.663 40.2159 50.5973 39.0822 51.5922C38.7829 51.8551 38.3984 52 38 52ZM31.822 28.6461C30.1231 28.6461 28.5623 29.3265 27.4269 30.5622C26.2747 31.8166 25.64 33.5506 25.64 35.4449C25.64 37.4436 26.3802 39.2312 28.0398 41.2408C29.6439 43.1834 32.0299 45.2239 34.7924 47.5866L34.7976 47.5909C35.7634 48.417 36.8582 49.3534 37.9977 50.3533C39.144 49.3515 40.2405 48.4135 41.2082 47.5862C43.9706 45.2235 46.3563 43.1834 47.9604 41.2408C49.6198 39.2312 50.36 37.4436 50.36 35.4449C50.36 33.5506 49.7253 31.8166 48.5731 30.5622C47.4379 29.3265 45.8769 28.6461 44.1782 28.6461C42.9336 28.6461 41.791 29.0431 40.782 29.826C39.8829 30.5241 39.2565 31.4065 38.8893 32.0239C38.7005 32.3414 38.3681 32.5309 38 32.5309C37.6319 32.5309 37.2995 32.3414 37.1107 32.0239C36.7437 31.4065 36.1173 30.5241 35.218 29.826C34.209 29.0431 33.0664 28.6461 31.822 28.6461Z" fill="black"/>
</svg>
