<svg width="73" height="70" viewBox="0 0 73 70" fill="none" xmlns="http://www.w3.org/2000/svg">
<path d="M57.3571 70C57.6337 70 57.899 69.8696 58.0946 69.6374C58.2901 69.4052 58.4 69.0903 58.4 68.7619V58.1927H67.7857C69.1681 58.1908 70.4934 57.5379 71.4709 56.3775C72.4485 55.217 72.9983 53.6436 73 52.0024V6.19403C72.9983 4.55286 72.4485 2.97947 71.4709 1.81899C70.4934 0.658504 69.1681 0.00567979 67.7857 0.00371392H20.3971C20.1205 0.00371392 19.8552 0.134153 19.6597 0.366335C19.4641 0.598517 19.3542 0.913423 19.3542 1.24178C19.3542 1.57013 19.4641 1.88504 19.6597 2.11722C19.8552 2.3494 20.1205 2.47984 20.3971 2.47984H67.7857C68.6155 2.47984 69.4112 2.87116 69.9979 3.5677C70.5847 4.26425 70.9143 5.20897 70.9143 6.19403V52.0024C70.9143 52.9875 70.5847 53.9322 69.9979 54.6287C69.4112 55.3253 68.6155 55.7166 67.7857 55.7166H57.3571C57.0806 55.7166 56.8153 55.847 56.6197 56.0792C56.4242 56.3114 56.3143 56.6263 56.3143 56.9547V66.0617L43.0001 56.0125C42.8107 55.819 42.569 55.7127 42.3191 55.7129H5.21428C4.38453 55.7129 3.58877 55.3216 3.00204 54.625C2.41532 53.9285 2.08571 52.9838 2.08571 51.9987V6.19032C2.08571 5.20525 2.41532 4.26054 3.00204 3.56399C3.58877 2.86744 4.38453 2.47613 5.21428 2.47613H22.4319C22.7084 2.47613 22.9737 2.34569 23.1693 2.11351C23.3648 1.88133 23.4747 1.56642 23.4747 1.23806C23.4747 0.909708 23.3648 0.594802 23.1693 0.36262C22.9737 0.130438 22.7084 0 22.4319 0H5.21428C3.83188 0.00196587 2.50656 0.654789 1.52905 1.81527C0.551544 2.97576 0.00165558 4.54915 0 6.19032V51.9987C0.00165558 53.6399 0.551544 55.2133 1.52905 56.3737C2.50656 57.5342 3.83188 58.187 5.21428 58.189H41.9322L56.6762 69.7004C56.8656 69.8939 57.1072 70.0002 57.3571 70Z" fill="black"/>
<path d="M36.119 16.0451L38.9714 24.824L39.2521 25.6877H40.1603H49.3909L41.9232 31.1133L41.1884 31.6472L41.4691 32.5109L44.3215 41.2898L36.8537 35.8641L36.119 35.3303L35.3843 35.8641L27.9165 41.2898L30.769 32.5109L31.0496 31.6472L30.3149 31.1133L22.8471 25.6877H32.0778H32.9859L33.2666 24.824L36.119 16.0451Z" stroke="#E30909" stroke-width="2.5"/>
</svg>
