<svg width="73" height="91" viewBox="0 0 73 91" fill="none" xmlns="http://www.w3.org/2000/svg">
<path d="M28.9537 58.2665C27.2603 58.2665 25.8944 57.6672 24.8558 56.4687C23.8172 55.2703 23.2979 53.6987 23.2979 51.754C23.2979 49.8093 23.8172 48.2378 24.8558 47.0393C25.8944 45.8408 27.2603 45.2416 28.9537 45.2416C30.6471 45.2416 32.0131 45.8408 33.0517 47.0393C34.1128 48.2151 34.6434 49.7867 34.6434 51.754C34.6434 53.7213 34.1128 55.3042 33.0517 56.5027C32.0131 57.6785 30.6471 58.2665 28.9537 58.2665ZM43.178 45.479H46.497L30.3084 69.2223H26.9894L43.178 45.479ZM28.9537 55.8921C29.8794 55.8921 30.5906 55.5303 31.0874 54.8067C31.6067 54.0831 31.8663 53.0655 31.8663 51.754C31.8663 50.4425 31.6067 49.4249 31.0874 48.7013C30.5906 47.9777 29.8794 47.6159 28.9537 47.6159C28.0732 47.6159 27.3619 47.989 26.8201 48.7352C26.3008 49.4588 26.0411 50.4651 26.0411 51.754C26.0411 53.0429 26.3008 54.0605 26.8201 54.8067C27.3619 55.5303 28.0732 55.8921 28.9537 55.8921ZM44.4988 69.4597C42.8055 69.4597 41.4395 68.8605 40.4009 67.662C39.3623 66.4635 38.843 64.8919 38.843 62.9473C38.843 61.0026 39.3623 59.431 40.4009 58.2325C41.4395 57.0341 42.8055 56.4348 44.4988 56.4348C46.1922 56.4348 47.5582 57.0341 48.5968 58.2325C49.658 59.431 50.1886 61.0026 50.1886 62.9473C50.1886 64.8919 49.658 66.4635 48.5968 67.662C47.5582 68.8605 46.1922 69.4597 44.4988 69.4597ZM44.4988 67.0854C45.402 67.0854 46.1132 66.7236 46.6325 66C47.1518 65.2538 47.4114 64.2362 47.4114 62.9473C47.4114 61.6583 47.1518 60.6521 46.6325 59.9285C46.1132 59.1823 45.402 58.8092 44.4988 58.8092C43.5957 58.8092 42.8845 59.171 42.3652 59.8946C41.8459 60.6182 41.5862 61.6357 41.5862 62.9473C41.5862 64.2588 41.8459 65.2764 42.3652 66C42.8845 66.7236 43.5957 67.0854 44.4988 67.0854Z" fill="black"/>
<path d="M63.1912 32.2837C55.4625 23.7622 50.8696 16.2607 48.3772 11.4681C45.6779 6.27708 44.7934 3.05813 44.7866 3.03252L43.9831 0L41.1135 1.27779C40.7781 1.42704 32.8496 5.03664 28.407 13.9065C26.177 18.3593 25.7309 23.3169 25.7496 26.6915C25.7605 28.6555 24.3667 30.3607 22.4356 30.7462C21.0817 31.0163 19.6889 30.5961 18.7117 29.6205L13.3664 24.2843L11.5277 26.8155C11.3368 27.0783 6.84312 33.2652 6.02504 34.5013C2.03011 40.5384 -0.0529691 47.571 0.00102354 54.8388C0.0733702 64.5454 3.89705 73.6394 10.7677 80.4459C17.6379 87.2518 26.7766 91 36.5002 91C56.6263 90.9998 73 74.6539 73 54.562C73.0002 47.2771 69.4249 39.1571 63.1912 32.2837ZM36.5004 87.2188C28.1968 87.2188 19.6189 83.2429 13.7568 77.4355C7.89462 71.628 4.63225 63.0872 4.57042 54.7991C4.52408 48.5946 6.30103 42.5929 9.70898 37.4431C10.1251 36.8144 12.5708 32.9342 14.0197 30.9281L15.7085 32.6165C17.9523 34.8565 20.3721 35.823 23.4844 35.2017C27.9193 34.3161 30.3438 31.1756 30.319 26.6624C30.3035 23.8693 30.6542 19.8032 32.4121 16.2931C34.5518 12.021 38.5272 8.45123 40.75 6.89859C42.7604 12.0034 48.6331 22.5497 60.0051 35.0882C62.5385 37.8814 68.431 46.0726 68.431 54.5621C68.431 71.7112 53.6786 87.2188 36.5004 87.2188Z" fill="#E30909"/>
</svg>
