<svg width="73" height="73" viewBox="0 0 73 73" fill="none" xmlns="http://www.w3.org/2000/svg">
<rect x="0.5" y="0.5" width="72" height="72" rx="36" stroke="black"/>
<path d="M28.2727 34.5448C31.7313 34.5448 34.5447 31.7314 34.5447 28.2734C34.5447 24.8141 31.7313 22 28.2727 22C24.8138 22 22 24.8141 22 28.2734C22 31.7317 24.8141 34.5448 28.2727 34.5448ZM28.2727 26.1445C29.4459 26.1445 30.4002 27.0995 30.4002 28.2734C30.4002 29.4463 29.4456 30.4003 28.2727 30.4003C27.0991 30.4003 26.1445 29.446 26.1445 28.2734C26.1445 27.0995 27.0991 26.1445 28.2727 26.1445Z" fill="#E30909"/>
<path d="M49.0117 23.9883C48.2028 23.1791 46.8901 23.1787 46.0815 23.9883L23.9887 46.0811C23.1795 46.8903 23.1795 48.2024 23.9887 49.0116C24.3934 49.4164 24.9236 49.6184 25.4541 49.6184C25.9842 49.6184 26.5147 49.416 26.9195 49.0116L49.012 26.9188C49.8209 26.1096 49.8209 24.7975 49.0117 23.9883Z" fill="#E30909"/>
<path d="M44.7266 38.4552C41.2684 38.4552 38.4553 41.2686 38.4553 44.7266C38.4553 48.1859 41.2688 51 44.7266 51C48.1859 51 51 48.1859 51 44.7266C51 41.2686 48.1859 38.4552 44.7266 38.4552ZM44.7266 46.8558C43.5541 46.8558 42.5998 45.9008 42.5998 44.7269C42.5998 43.5543 43.5541 42.6001 44.7266 42.6001C45.9002 42.6001 46.8555 43.5543 46.8555 44.7269C46.8555 45.9005 45.9006 46.8558 44.7266 46.8558Z" fill="#E30909"/>
</svg>
