<svg width="58" height="58" viewBox="0 0 58 58" fill="none" xmlns="http://www.w3.org/2000/svg">
<path d="M25.2468 11.0828C26.75 11.0828 27.973 9.85977 27.973 8.35642C27.973 6.85306 26.75 5.63008 25.2468 5.63008C23.7434 5.63008 22.5204 6.85306 22.5204 8.35631C22.5204 9.85955 23.7434 11.0828 25.2468 11.0828ZM25.2468 7.3293C25.8131 7.3293 26.2738 7.79001 26.2738 8.35631C26.2738 8.9226 25.8131 9.38343 25.2468 9.38343C24.6804 9.38343 24.2196 8.92271 24.2196 8.35631C24.2196 7.79013 24.6804 7.3293 25.2468 7.3293Z" fill="#E30909"/>
<path d="M32.7534 13.1369C31.2501 13.1369 30.0271 14.3599 30.0271 15.8631C30.0271 17.3664 31.2502 18.5895 32.7534 18.5895C34.2567 18.5895 35.4797 17.3665 35.4797 15.8631C35.4797 14.3598 34.2567 13.1369 32.7534 13.1369ZM32.7534 16.8902C32.187 16.8902 31.7263 16.4295 31.7263 15.8631C31.7263 15.2968 32.187 14.8361 32.7534 14.8361C33.3197 14.8361 33.7804 15.2968 33.7804 15.8631C33.7804 16.4295 33.3197 16.8902 32.7534 16.8902Z" fill="#E30909"/>
<path d="M22.7694 18.3406C22.9352 18.5065 23.1527 18.5895 23.3701 18.5895C23.5875 18.5895 23.805 18.5065 23.9708 18.3406L35.2311 7.08042C35.5629 6.74862 35.5629 6.21065 35.2311 5.87896C34.8993 5.54716 34.3614 5.54716 34.0295 5.87896L22.7694 17.1391C22.4374 17.4709 22.4374 18.0089 22.7694 18.3406Z" fill="#E30909"/>
<path d="M53.3969 18.767H39.1106C40.3734 16.8555 41.1099 14.5672 41.1099 12.1098C41.1098 5.4324 35.6774 0 29 0C26.4619 0 24.0318 0.776883 21.9726 2.24659C21.5906 2.51915 21.502 3.04976 21.7746 3.43174C22.0471 3.81373 22.5777 3.90243 22.9596 3.62964C24.7292 2.36679 26.8179 1.69922 29 1.69922C34.7404 1.69922 39.4105 6.36935 39.4105 12.1098C39.4105 17.8502 34.7403 22.5203 29 22.5203C23.2597 22.5203 18.5895 17.8502 18.5895 12.1098C18.5895 9.81593 19.3206 7.64093 20.7038 5.8196C20.9876 5.44588 20.9148 4.91289 20.5412 4.62912C20.1675 4.34524 19.6345 4.41819 19.3507 4.79191C17.7411 6.91129 16.8902 9.44177 16.8902 12.1099C16.8902 14.5673 17.6267 16.8556 18.8895 18.7671H4.60296C2.06489 18.767 0 20.8319 0 23.3699V53.397C0 55.9351 2.06489 58 4.60296 58H8.5337C9.00291 58 9.38331 57.6196 9.38331 57.1504C9.38331 56.6812 9.00291 56.3008 8.5337 56.3008H4.60296C3.00184 56.3008 1.69922 54.9982 1.69922 53.397V33.603H56.3008V53.3969C56.3008 54.9982 54.9982 56.3008 53.3969 56.3008H11.9323C11.463 56.3008 11.0826 56.6812 11.0826 57.1504C11.0826 57.6196 11.463 58 11.9323 58H53.3969C55.9351 58 58 55.9351 58 53.397V23.3699C58 20.8319 55.9351 18.767 53.3969 18.767ZM4.60296 20.4662H20.2434C22.4501 22.7775 25.5598 24.2195 29 24.2195C32.4402 24.2195 35.55 22.7775 37.7566 20.4662H53.3969C54.9982 20.4662 56.3008 21.7688 56.3008 23.3699V26.2737H1.69922V23.3699C1.69922 21.7687 3.00184 20.4662 4.60296 20.4662ZM1.69922 31.9037V27.9729H56.3008V31.9037H1.69922Z" fill="#E30909"/>
<path d="M51.5845 54.2467C53.0524 54.2467 54.2466 53.0524 54.2466 51.5845V47.7027C54.2466 46.2348 53.0524 45.0406 51.5845 45.0406H42.0727C40.6048 45.0406 39.4106 46.2348 39.4106 47.7027V51.5845C39.4106 53.0524 40.6048 54.2467 42.0727 54.2467H51.5845ZM41.1098 51.5845V47.7027C41.1098 47.1718 41.5419 46.7398 42.0727 46.7398H51.5845C52.1153 46.7398 52.5474 47.1718 52.5474 47.7027V51.5845C52.5474 52.1155 52.1153 52.5474 51.5845 52.5474H42.0727C41.5419 52.5474 41.1098 52.1155 41.1098 51.5845Z" fill="#E30909"/>
<path d="M45.8902 50.4932H47.7669C48.2362 50.4932 48.6165 50.1128 48.6165 49.6436C48.6165 49.1744 48.2362 48.794 47.7669 48.794H45.8902C45.4209 48.794 45.0406 49.1744 45.0406 49.6436C45.0406 50.1128 45.4209 50.4932 45.8902 50.4932Z" fill="#E30909"/>
<path d="M5.50895 42.9865H9.32653C10.2947 42.9865 11.0824 42.1989 11.0824 41.2306V39.2898C11.0824 38.3216 10.2947 37.5339 9.32653 37.5339H5.50895C4.54074 37.5339 3.75309 38.3216 3.75309 39.2898V41.2306C3.75309 42.1989 4.54074 42.9865 5.50895 42.9865ZM5.45231 39.2897C5.45231 39.2584 5.47769 39.233 5.50895 39.233H9.32653C9.3578 39.233 9.38317 39.2584 9.38317 39.2897V41.2305C9.38317 41.2618 9.3578 41.2872 9.32653 41.2872H5.50895C5.47769 41.2872 5.45231 41.2618 5.45231 41.2305V39.2897Z" fill="#E30909"/>
<path d="M24.3406 37.5338H14.8929C13.9247 37.5338 13.1371 38.3215 13.1371 39.2897V41.2305C13.1371 42.1987 13.9247 42.9864 14.8929 42.9864H24.3406C25.3088 42.9864 26.0965 42.1987 26.0965 41.2305V39.2897C26.0965 38.3216 25.3088 37.5338 24.3406 37.5338ZM24.3972 41.2306C24.3972 41.2619 24.3719 41.2873 24.3406 41.2873H14.8929C14.8617 41.2873 14.8363 41.2619 14.8363 41.2306V39.2898C14.8363 39.2585 14.8617 39.2332 14.8929 39.2332H24.3406C24.3719 39.2332 24.3972 39.2585 24.3972 39.2898V41.2306Z" fill="#E30909"/>
<path d="M35.6006 42.9865C36.5688 42.9865 37.3564 42.1989 37.3564 41.2306V39.2898C37.3564 38.3216 36.5688 37.5339 35.6006 37.5339H29.9062C28.938 37.5339 28.1504 38.3216 28.1504 39.2898V41.2306C28.1504 42.1989 28.938 42.9865 29.9062 42.9865H35.6006ZM29.8496 41.2306V39.2898C29.8496 39.2585 29.8751 39.2332 29.9062 39.2332H35.6006C35.6317 39.2332 35.6572 39.2585 35.6572 39.2898V41.2306C35.6572 41.2619 35.6317 41.2873 35.6006 41.2873H29.9062C29.8751 41.2873 29.8496 41.2619 29.8496 41.2306Z" fill="#E30909"/>
<path d="M14.8359 45.8902C14.8359 45.421 14.4555 45.0406 13.9862 45.0406H4.6027C4.13349 45.0406 3.75309 45.421 3.75309 45.8902C3.75309 46.3594 4.13349 46.7398 4.6027 46.7398H13.9861C14.4555 46.7398 14.8359 46.3594 14.8359 45.8902Z" fill="#E30909"/>
<path d="M4.6027 50.6707C4.13349 50.6707 3.75309 51.0511 3.75309 51.5203C3.75309 51.9895 4.13349 52.3699 4.6027 52.3699H8.35605C8.82526 52.3699 9.20566 51.9895 9.20566 51.5203C9.20566 51.0511 8.82526 50.6707 8.35605 50.6707H4.6027Z" fill="#E30909"/>
<path d="M22.5204 45.8902C22.5204 46.3594 22.9008 46.7398 23.37 46.7398H27.1234C27.5926 46.7398 27.973 46.3594 27.973 45.8902C27.973 45.421 27.5926 45.0406 27.1234 45.0406H23.37C22.9008 45.0406 22.5204 45.421 22.5204 45.8902Z" fill="#E30909"/>
<path d="M17.7398 45.0406C17.2706 45.0406 16.8902 45.421 16.8902 45.8902C16.8902 46.3594 17.2706 46.7398 17.7398 46.7398H19.6164C20.0856 46.7398 20.466 46.3594 20.466 45.8902C20.466 45.421 20.0856 45.0406 19.6164 45.0406H17.7398Z" fill="#E30909"/>
</svg>
