<svg width="68" height="59" viewBox="0 0 68 59" fill="none" xmlns="http://www.w3.org/2000/svg">
<path d="M65.7333 13H19.2667C18.6407 13 18.1333 13.4925 18.1333 14.1C18.1333 14.7075 18.6407 15.2 19.2667 15.2H26.1177C21.088 18.3063 18.0686 23.7141 18.1333 29.5C18.0686 35.2859 21.088 40.6937 26.1177 43.8H2.26667V15.2H13.6C14.2259 15.2 14.7333 14.7075 14.7333 14.1C14.7333 13.4925 14.2259 13 13.6 13H2.26667C1.01482 13 0 13.985 0 15.2V43.8C0 45.015 1.01482 46 2.26667 46H65.7333C66.9852 46 68 45.015 68 43.8V15.2C68 13.985 66.9852 13 65.7333 13ZM20.4 29.5C20.4 21.6152 26.5007 15.2 34 15.2C41.4993 15.2 47.6 21.6152 47.6 29.5C47.6 37.3848 41.4993 43.8 34 43.8C26.5007 43.8 20.4 37.3848 20.4 29.5ZM65.7333 43.8H41.8823C46.912 40.6937 49.9314 35.2859 49.8667 29.5C49.9314 23.7141 46.912 18.3063 41.8823 15.2H65.7333V43.8Z" fill="#E30909"/>
<path d="M59.8358 0.239935C59.2987 -0.0288821 58.6769 -0.0737643 58.1067 0.115126L33.6668 8.306C33.0715 8.50527 32.7504 9.1494 32.9497 9.7447C33.149 10.34 33.7931 10.6611 34.3884 10.4618L58.8215 2.27092L61.329 9.74697C61.4577 10.1321 61.7821 10.4192 62.1799 10.5003C62.5778 10.5814 62.9887 10.4441 63.2578 10.1401C63.527 9.83609 63.6135 9.41158 63.4848 9.02649L60.9761 1.55497C60.7892 0.980622 60.3779 0.506306 59.8358 0.239935Z" fill="#E30909"/>
<path d="M33.6885 48.5433L9.25543 56.733L6.74791 49.257C6.54895 48.6617 5.90507 48.3403 5.30977 48.5393C4.71446 48.7383 4.39316 49.3821 4.59212 49.9774L7.09624 57.4467C7.28183 58.02 7.69093 58.4942 8.23087 58.7617C8.545 58.918 8.89098 58.9995 9.24182 59C9.48571 59.0004 9.72813 58.9621 9.96004 58.8865L34.3999 50.6957C34.9952 50.4964 35.3163 49.8523 35.117 49.257C34.9177 48.6617 34.2736 48.3406 33.6783 48.5399L33.6885 48.5433Z" fill="#E30909"/>
<path d="M57.8661 41.9828H62.4046C63.0312 41.9828 63.5392 41.4749 63.5392 40.8482V36.3097C63.5392 35.6831 63.0312 35.1751 62.4046 35.1751C61.7779 35.1751 61.27 35.6831 61.27 36.3097V39.7136H57.8661C57.2394 39.7136 56.7314 40.2216 56.7314 40.8482C56.7314 41.4749 57.2394 41.9828 57.8661 41.9828Z" fill="#E30909"/>
<path d="M5.67369 35.1751C5.04705 35.1751 4.53906 35.6831 4.53906 36.3097V40.8482C4.53906 41.4749 5.04705 41.9828 5.67369 41.9828H10.2122C10.8388 41.9828 11.3468 41.4749 11.3468 40.8482C11.3468 40.2216 10.8388 39.7136 10.2122 39.7136H6.80832V36.3097C6.80832 35.6831 6.30033 35.1751 5.67369 35.1751Z" fill="#E30909"/>
<path d="M10.2122 17.0211H5.67369C5.04705 17.0211 4.53906 17.529 4.53906 18.1557V22.6942C4.53906 23.3208 5.04705 23.8288 5.67369 23.8288C6.30033 23.8288 6.80832 23.3208 6.80832 22.6942V19.2903H10.2122C10.8388 19.2903 11.3468 18.7823 11.3468 18.1557C11.3468 17.529 10.8388 17.0211 10.2122 17.0211Z" fill="#E30909"/>
<path d="M57.8661 19.2903H61.27V22.6942C61.27 23.3208 61.7779 23.8288 62.4046 23.8288C63.0312 23.8288 63.5392 23.3208 63.5392 22.6942V18.1557C63.5392 17.529 63.0312 17.0211 62.4046 17.0211H57.8661C57.2394 17.0211 56.7314 17.529 56.7314 18.1557C56.7314 18.7823 57.2394 19.2903 57.8661 19.2903Z" fill="#E30909"/>
</svg>
