<svg width="69" height="45" viewBox="0 0 69 45" fill="none" xmlns="http://www.w3.org/2000/svg">
<path d="M2 2L42.926 2V38.1148H21.2593" stroke="#E30909" stroke-width="3" stroke-miterlimit="10" stroke-linecap="round" stroke-linejoin="round"/>
<path d="M54.9633 42.9302C57.6224 42.9302 59.7781 40.7743 59.7781 38.1149C59.7781 35.4554 57.6224 33.2996 54.9633 33.2996C52.3041 33.2996 50.1484 35.4554 50.1484 38.1149C50.1484 40.7743 52.3041 42.9302 54.9633 42.9302Z" stroke="#E30909" stroke-width="3" stroke-miterlimit="10" stroke-linecap="round" stroke-linejoin="round"/>
<path d="M16.4447 42.9302C19.1039 42.9302 21.2595 40.7743 21.2595 38.1149C21.2595 35.4554 19.1039 33.2996 16.4447 33.2996C13.7856 33.2996 11.6299 35.4554 11.6299 38.1149C11.6299 40.7743 13.7856 42.9302 16.4447 42.9302Z" stroke="#E30909" stroke-width="3" stroke-miterlimit="10" stroke-linecap="round" stroke-linejoin="round"/>
<path d="M42.9258 38.1148V11.6306H57.3703L66.9999 23.6689V38.1148H59.7777" stroke="#E30909" stroke-width="3" stroke-miterlimit="10" stroke-linecap="round" stroke-linejoin="round"/>
<path d="M6.81445 11.6306H28.4812" stroke="#E30909" stroke-width="3" stroke-miterlimit="10" stroke-linecap="round" stroke-linejoin="round"/>
<path d="M2 21.2614H23.6667" stroke="#E30909" stroke-width="3" stroke-miterlimit="10" stroke-linecap="round" stroke-linejoin="round"/>
</svg>
