<svg width="62" height="51" viewBox="0 0 62 51" fill="none" xmlns="http://www.w3.org/2000/svg">
<path d="M39.9355 24.138L39.4868 24.8933H40.3654H52.6593C53.3509 24.8933 53.9582 25.3513 54.1479 26.0145C54.1479 26.0145 54.1479 26.0145 54.1479 26.0146L60.4749 48.1569C60.6079 48.6229 60.5144 49.1242 60.2219 49.5108L60.2217 49.5111C59.9294 49.8981 59.472 50.1258 58.9859 50.1258H2.04786C1.56182 50.1258 1.10439 49.8981 0.812052 49.5111C0.519744 49.1241 0.426322 48.6229 0.5593 48.157C0.55931 48.157 0.55932 48.157 0.55933 48.1569L6.88585 26.0144C7.07551 25.3512 7.68278 24.8931 8.37466 24.8931H20.6688H21.5474L21.0987 24.1378C19.1503 20.8577 17.6638 17.122 17.6638 13.3705C17.6638 6.29136 23.4296 0.530884 30.5171 0.530884C37.6046 0.530884 43.3704 6.29136 43.3704 13.3707C43.3704 17.1222 41.8839 20.8579 39.9355 24.138ZM30.161 30.6556L30.5158 31.0121L30.8702 30.6553C32.3132 29.2025 34.654 26.6532 36.6371 23.5957C38.6134 20.5486 40.2743 16.9366 40.2743 13.3705C40.2743 7.99356 35.8973 3.62115 30.5171 3.62115C25.1369 3.62115 20.7598 7.99356 20.7598 13.3705C20.7598 16.9456 22.4196 20.5587 24.3952 23.6044C26.3776 26.6604 28.7176 29.2052 30.161 30.6556ZM4.28138 46.3981L4.09926 47.0355H4.76214H56.2721H56.9349L56.7528 46.3981L51.5947 28.3462L51.4911 27.9836H51.114H37.5677H37.3222L37.1721 28.1778C34.4243 31.7319 31.7592 34.1028 31.5405 34.2952C31.248 34.5523 30.8832 34.6808 30.5171 34.6808C30.1508 34.6808 29.7861 34.5523 29.4936 34.2951C29.2742 34.1021 26.6094 31.7313 23.8621 28.1778L23.712 27.9836H23.4665H9.92003H9.54289L9.43927 28.3462L4.28138 46.3981Z" fill="#E30909" stroke="white"/>
<path d="M26.0489 38.8614L26.0491 38.8614C26.2636 38.9444 26.4829 38.9837 26.6981 38.9837C27.4195 38.9837 28.0989 38.5471 28.3757 37.8348L26.0489 38.8614ZM26.0489 38.8614C25.1228 38.5041 24.6628 37.4646 25.0205 36.5401M26.0489 38.8614L25.0205 36.5401M31.6776 37.8117L31.7477 37.8559C32.587 38.3851 32.8352 39.4942 32.3049 40.3309L31.6776 37.8117ZM31.6776 37.8117C30.8484 37.3382 29.783 37.5951 29.2655 38.4087C28.7337 39.2468 28.9835 40.3562 29.8214 40.8876C30.1195 41.0761 30.454 41.1658 30.7831 41.1658C31.3792 41.1658 31.9613 40.8714 32.3047 40.3312L31.6776 37.8117ZM25.0205 36.5401C25.378 35.6163 26.4188 35.1559 27.3475 35.5136M25.0205 36.5401L27.3475 35.5136M27.3475 35.5136C28.2736 35.8708 28.7336 36.9098 28.3758 37.8345L27.3475 35.5136ZM48.684 37.0907L48.6835 37.0912C48.3496 37.4249 47.8848 37.6173 47.4125 37.6173C46.9401 37.6173 46.4753 37.4249 46.1409 37.0911C45.8068 36.7575 45.6144 36.2937 45.6144 35.8223C45.6144 35.3508 45.8069 34.8867 46.1409 34.553C46.4753 34.2193 46.9401 34.0269 47.4125 34.0269C47.8849 34.0269 48.3498 34.2193 48.6835 34.5529L48.6841 34.5535C49.0194 34.8866 49.2105 35.3504 49.2105 35.8223C49.2105 36.2942 49.0194 36.7576 48.684 37.0907ZM22.2598 34.4155L22.2599 34.4155C23.2506 34.4584 24.0199 35.2968 23.9771 36.2883L23.9771 36.2883C23.9358 37.2513 23.14 38.0042 22.1809 38.0042C22.1511 38.0042 22.1285 38.0041 22.1073 38.0027L22.1073 38.0026L22.1016 38.0024C21.1107 37.9591 20.3414 37.1205 20.3847 36.13L20.3847 36.1299C20.4278 35.141 21.2669 34.3723 22.2598 34.4155ZM17.0224 35.1767L17.0222 35.176C17.9606 34.8504 18.9843 35.3461 19.3093 36.2825L19.3093 36.2826C19.6348 37.2196 19.1388 38.243 18.2002 38.5682L18.1995 38.5684C18.0052 38.6364 17.806 38.6687 17.61 38.6687C16.8656 38.6687 16.17 38.2017 15.9131 37.4604L15.9129 37.4599C15.586 36.5236 16.0832 35.5022 17.0224 35.1767ZM44.8631 40.3152L44.8631 40.3153C44.5595 40.5142 44.2183 40.6078 43.8799 40.6078C43.2926 40.6078 42.7177 40.3218 42.3729 39.7964C41.8298 38.9649 42.0636 37.852 42.8941 37.3098C43.7253 36.7674 44.8399 36.9994 45.3826 37.8301L45.3829 37.8305C45.9272 38.6597 45.6944 39.7708 44.8631 40.3152ZM39.2052 39.0248L39.2051 39.0243C40.1631 38.7613 41.1511 39.3232 41.4153 40.2779C41.6793 41.2343 41.1172 42.2215 40.1586 42.4858C39.9974 42.5294 39.8372 42.5507 39.6797 42.5507C38.8904 42.5507 38.168 42.0278 37.9486 41.2309L37.9485 41.2305C37.6844 40.2763 38.2466 39.287 39.2052 39.0248ZM12.349 40.4657L12.3488 40.4655C12.0147 40.1324 11.8223 39.6683 11.8223 39.1968C11.8223 38.7254 12.0148 38.2614 12.349 37.9275C12.683 37.5939 13.148 37.4017 13.6203 37.4017C14.0946 37.4017 14.5574 37.594 14.8917 37.9275L14.8919 37.9278C15.2273 38.2614 15.4183 38.7249 15.4183 39.1968C15.4183 39.6687 15.2272 40.1325 14.8921 40.4651L14.8915 40.4658C14.5574 40.7998 14.0926 40.9922 13.6203 40.9922C13.1482 40.9922 12.6832 40.7996 12.349 40.4657ZM33.3071 40.7577C33.4635 39.78 34.3839 39.1115 35.3659 39.2677C36.3453 39.4239 37.0126 40.343 36.858 41.3236C36.7159 42.2062 35.9518 42.8367 35.0834 42.8367C34.9927 42.8367 34.8974 42.8281 34.7983 42.8132C33.8188 42.6565 33.1509 41.7354 33.3071 40.7577Z" fill="#E30909" stroke="white" stroke-width="0.5"/>
<path fill-rule="evenodd" clip-rule="evenodd" d="M30.5177 2.53003C36.3635 2.53003 41.1194 7.28155 41.1194 13.1226C41.1194 20.9617 33.7919 29.216 30.5158 32.5142C27.2391 29.2215 19.916 20.9829 19.916 13.1226C19.916 7.28155 24.6719 2.53003 30.5177 2.53003ZM30.5172 6.78844C33.9966 6.78844 36.8271 9.6299 36.8271 13.1226C36.8271 16.6151 33.9966 19.4566 30.5172 19.4563C27.0376 19.4563 24.2071 16.6149 24.2071 13.1226C24.2071 9.6299 27.0378 6.78844 30.5172 6.78844Z" fill="#E30909"/>
</svg>
