<svg width="70" height="59" viewBox="0 0 70 59" fill="none" xmlns="http://www.w3.org/2000/svg">
<path d="M69.1314 47.6875C69.1482 47.7741 69.1567 47.8618 69.1567 47.9495C69.1567 49.6277 67.7909 50.9934 66.1125 50.9934H60.8852H60.67L60.638 51.2062C60.0555 55.0778 56.7064 58.0559 52.6754 58.0559C48.6444 58.0559 45.2951 55.0778 44.7127 51.2062L44.6806 50.9934H44.4654H29.6844H29.4692L29.4372 51.2062C28.8547 55.0778 25.5055 58.0559 21.4746 58.0559C17.4436 58.0559 14.0944 55.0778 13.5118 51.2062L13.4798 50.9934H13.2646H9.24691C7.56865 50.9934 6.20283 49.6277 6.20283 47.9495V31.7598V31.5098H5.95283H1.61145C0.859579 31.5098 0.25 30.9002 0.25 30.1483C0.25 29.3965 0.859579 28.7869 1.61145 28.7869H5.95283H6.20283V28.5369V24.6929V24.4429H5.95283H3.52627C2.7744 24.4429 2.16482 23.8334 2.16482 23.0815C2.16482 22.3296 2.7744 21.72 3.52627 21.72H5.95297H6.20297V21.47V16.2941C6.20297 14.6158 7.5688 13.25 9.24705 13.25H44.2942C47.8054 13.25 52.3754 15.509 56.8251 19.5168C61.0983 23.3658 64.482 28.1892 65.8857 32.4055C66.1751 33.2748 66.9171 36.7371 67.6249 40.1813C68.3305 43.614 68.996 46.9976 69.1314 47.6875ZM62.8805 33.075L63.2402 33.075L63.1148 32.7379C61.8135 29.2388 59.1068 25.5252 55.9951 22.4912C52.8861 19.4599 49.3405 17.0754 46.3402 16.2695L46.0253 16.185V16.511V32.8249V33.0749L46.2753 33.0749L62.8805 33.075ZM60.4947 48.0804L60.5415 48.2707H60.7374H60.7376H60.7378H60.7381H60.7385H60.739H60.7396H60.7403H60.741H60.7419H60.7428H60.7438H60.7449H60.7461H60.7474H60.7488H60.7502H60.7518H60.7534H60.7551H60.7569H60.7588H60.7607H60.7628H60.7649H60.7671H60.7694H60.7718H60.7743H60.7768H60.7794H60.7821H60.7849H60.7878H60.7907H60.7937H60.7969H60.8H60.8033H60.8066H60.8101H60.8136H60.8171H60.8208H60.8245H60.8284H60.8322H60.8362H60.8402H60.8444H60.8486H60.8528H60.8572H60.8616H60.8661H60.8707H60.8753H60.88H60.8848H60.8897H60.8946H60.8996H60.9047H60.9098H60.9151H60.9204H60.9257H60.9312H60.9367H60.9422H60.9479H60.9536H60.9594H60.9653H60.9712H60.9772H60.9832H60.9894H60.9956H61.0018H61.0082H61.0145H61.021H61.0275H61.0341H61.0408H61.0475H61.0543H61.0612H61.0681H61.0751H61.0821H61.0892H61.0964H61.1037H61.111H61.1183H61.1257H61.1332H61.1408H61.1484H61.1561H61.1638H61.1716H61.1794H61.1873H61.1953H61.2033H61.2114H61.2196H61.2278H61.236H61.2444H61.2527H61.2612H61.2697H61.2782H61.2868H61.2955H61.3042H61.313H61.3218H61.3307H61.3396H61.3486H61.3576H61.3667H61.3759H61.3851H61.3943H61.4036H61.413H61.4224H61.4319H61.4414H61.4509H61.4605H61.4702H61.4799H61.4897H61.4995H61.5094H61.5193H61.5292H61.5392H61.5493H61.5594H61.5696H61.5798H61.59H61.6003H61.6106H61.621H61.6314H61.6419H61.6524H61.663H61.6736H61.6843H61.695H61.7057H61.7165H61.7273H61.7382H61.7491H61.76H61.771H61.7821H61.7931H61.8043H61.8154H61.8266H61.8379H61.8491H61.8605H61.8718H61.8832H61.8946H61.9061H61.9176H61.9292H61.9408H61.9524H61.9641H61.9757H61.9875H61.9992H62.0111H62.0229H62.0348H62.0467H62.0586H62.0706H62.0826H62.0947H62.1067H62.1188H62.131H62.1432H62.1554H62.1676H62.1799H62.1922H62.2045H62.2169H62.2293H62.2417H62.2542H62.2666H62.2792H62.2917H62.3043H62.3169H62.3295H62.3422H62.3548H62.3675H62.3803H62.393H62.4058H62.4187H62.4315H62.4444H62.4572H62.4702H62.4831H62.4961H62.5091H62.5221H62.5351H62.5482H62.5612H62.5743H62.5875H62.6006H62.6138H62.627H62.6402H62.6534H62.6667H62.6799H62.6932H62.7065H62.7199H62.7332H62.7466H62.76H62.7734H62.7868H62.8002H62.8137H62.8272H62.8407H62.8542H62.8677H62.8812H62.8948H62.9084H62.9219H62.9355H62.9492H62.9628H62.9764H62.9901H63.0037H63.0174H63.0311H63.0448H63.0585H63.0722H63.086H63.0997H63.1135H63.1273H63.141H63.1548H63.1686H63.1824H63.1963H63.2101H63.2239H63.2378H63.2516H63.2655H63.2793H63.2932H63.3071H63.321H63.3349H63.3488H63.3627H63.3766H63.3905H63.4044H63.4183H63.4322H63.4462H63.4601H63.474H63.488H63.5019H63.5159H63.5298H63.5437H63.5577H63.5716H63.5856H63.5995H63.6135H63.6274H63.6414H63.6553H63.6693H63.6832H63.6972H63.7111H63.725H63.739H63.7529H63.7668H63.7808H63.7947H63.8086H63.8225H63.8364H63.8503H63.8642H63.8781H63.892H63.9059H63.9198H63.9337H63.9475H63.9614H63.9752H63.9891H64.0029H64.0167H64.0305H64.0444H64.0582H64.0719H64.0857H64.0995H64.1133H64.127H64.1407H64.1545H64.1682H64.1819H64.1956H64.2092H64.2229H64.2366H64.2502H64.2638H64.2774H64.291H64.3046H64.3182H64.3317H64.3453H64.3588H64.3723H64.3858H64.3992H64.4127H64.4261H64.4396H64.453H64.4663H64.4797H64.4931H64.5064H64.5197H64.533H64.5463H64.5595H64.5727H64.5859H64.5991H64.6123H64.6254H64.6386H64.6517H64.6647H64.6778H64.6908H64.7038H64.7168H64.7298H64.7427H64.7556H64.7685H64.7814H64.7942H64.807H64.8198H64.8326H64.8453H64.858H64.8707H64.8834H64.896H64.9086H64.9212H64.9337H64.9462H64.9587H64.9711H64.9836H64.9959H65.0083H65.0206H65.0329H65.0452H65.0574H65.0696H65.0818H65.094H65.1061H65.1181H65.1302H65.1422H65.1542H65.1661H65.178H65.1899H65.2017H65.2135H65.2253H65.237H65.2487H65.2604H65.272H65.2836H65.2951H65.3066H65.3181H65.3295H65.3409H65.3523H65.3636H65.3748H65.3861H65.3973H65.4084H65.4195H65.4306H65.4417H65.4526H65.4636H65.4745H65.4854H65.4962H65.507H65.5177H65.5284H65.539H65.5496H65.5602H65.5707H65.5812H65.5916H65.602H65.6123H65.6226H65.6328H65.643H65.6532H65.6633H65.6733H65.6833H65.6933H65.7032H65.7131H65.7229H65.7326H65.7423H65.752H65.7616H65.7711H65.7807H65.7901H65.7995H65.8089H65.8182H65.8274H65.8366H65.8458H65.8548H65.8639H65.8729H65.8818H65.8907H65.8995H65.9082H65.917H65.9256H65.9342H65.9427H65.9512H65.9597H65.968H65.9763H65.9846H65.9928H66.0009H66.009H66.017H66.025H66.0329C66.0835 48.2707 66.1898 48.2665 66.2798 48.197C66.4024 48.1025 66.4115 47.963 66.3911 47.8686C65.9929 46.0235 65.56 43.8561 65.1405 41.7558L65.1327 41.7165C64.711 39.6053 64.3031 37.5638 63.9589 35.9943L63.9158 35.7979L63.7147 35.7979L44.6639 35.7978C43.9119 35.7978 43.3024 35.1882 43.3024 34.4363V16.223V15.973H43.0524H9.24691C9.0696 15.973 8.92572 16.1169 8.92572 16.2942V21.4702V21.7202H9.17572H18.2657C19.0176 21.7202 19.6271 22.3298 19.6271 23.0816C19.6271 23.8335 19.0176 24.4431 18.2657 24.4431H9.17572H8.92572V24.6931V28.537V28.787H9.17572H28.9244C29.6762 28.787 30.2858 29.3966 30.2858 30.1485C30.2858 30.9003 29.6762 31.5099 28.9244 31.5099H9.17586H8.92586V31.7599V47.9496C8.92586 48.1271 9.07004 48.2707 9.24705 48.2707H13.4127H13.6087L13.6555 48.0804C14.52 44.5654 17.6977 41.9503 21.4747 41.9503C25.2517 41.9503 28.4292 44.5654 29.2938 48.0804L29.3406 48.2707H29.5366H44.6135H44.8095L44.8563 48.0804C45.7209 44.5654 48.8985 41.9503 52.6755 41.9503C56.4526 41.9503 59.6301 44.5654 60.4947 48.0804ZM16.1446 50.003C16.1446 52.9424 18.5355 55.3332 21.4747 55.3332C24.4139 55.3332 26.8045 52.9423 26.8047 50.003C26.8047 47.0639 24.4139 44.673 21.4747 44.673C18.5355 44.673 16.1446 47.0638 16.1446 50.003ZM47.3454 50.003C47.3454 52.9422 49.7364 55.333 52.6755 55.3332C55.6147 55.3332 58.0055 52.9424 58.0055 50.003C58.0055 47.0638 55.6147 44.673 52.6755 44.673C49.7364 44.673 47.3454 47.0638 47.3454 50.003Z" fill="#E30909" stroke="white" stroke-width="0.5"/>
<path d="M42 15.7792H11V2.95853C11 1.32736 11.9483 0 13.1136 0H39.8863C41.0516 0 41.9999 1.32736 41.9999 2.95853V15.7792H42Z" fill="#E30909"/>
</svg>
