<svg width="62" height="59" viewBox="0 0 62 59" fill="none" xmlns="http://www.w3.org/2000/svg">
<path d="M57.0967 23.5605H61.0344V17.6539H57.8655L56.881 13.7162H4.15338L3.16906 17.6539H0V23.5605H3.9377V34.3893V39.3115V53.0935H0V59H61.0344V53.0935H57.0967V40.0214L58.1568 40.3748L61.0344 38.9356V35.059L57.0406 29.4675H57.0967V23.5605ZM5.69087 15.6851H55.3433L55.8356 17.6539H5.19882L5.69087 15.6851ZM1.96885 21.5917V19.6228H2.67659H58.3576H59.0653V21.5917H57.0965H55.1278H5.90655H3.9377H1.96885ZM55.1278 23.5605V27.4982H26.5794H25.0497H5.90655V23.5605H55.1278ZM54.1433 37.6182L52.1744 38.2749L50.2056 37.6182V36.18L47.6884 29.4673H50.5817L54.1433 36.5906V37.6182ZM21.6574 53.0933V39.9197L22.5661 40.3746L24.6107 39.6925V53.0935H21.6574V53.0933ZM21.6574 36.6406L26.1405 29.4671H26.5796H27.94L24.6107 36.1257V37.618L22.7177 38.2491L21.6576 37.7184V37.3423V36.6406H21.6574ZM19.6885 37.3425H8.85972H5.90655V36.3579H19.6885V37.3425ZM10.8286 39.3113H19.6885V53.0933H10.8286V39.3113ZM26.5794 36.5904L30.141 29.4671H33.0343L30.5171 36.1788V37.6169L28.5482 38.2736L26.5794 37.6169V36.5904ZM45.5858 29.4671L48.2367 36.5373V37.6182L46.2679 38.2749L44.299 37.6182V36.3581L43.4445 29.4671H45.5858ZM41.461 29.4671L42.3302 36.4201V37.6182L40.3613 38.2749L38.3925 37.6182V36.4201L39.2617 29.4671H41.461ZM36.4316 36.2361L36.4268 37.6174L34.455 38.2741L32.4861 37.6174V36.5364L35.1371 29.4673H37.2773L36.4316 36.2361ZM31.5016 39.3644L34.4548 40.349L37.408 39.3644L40.3611 40.349L43.3143 39.3644L46.2675 40.349L49.2206 39.3644L50.205 39.6923V48.171H31.5016V39.3644ZM5.90655 29.4671H23.8192L20.7428 34.3893H5.90655V29.4671ZM5.90655 39.3113H8.85972V53.0933H5.90655V39.3113ZM59.0655 57.031H1.96885V55.0621H3.9377H5.90655H8.85972H21.6572H59.0655V57.031ZM55.1278 53.0933H26.5794V39.6923L28.5482 40.349L29.5326 40.0211V50.1401H52.1742V40.349L55.1274 39.3644V53.0933H55.1278ZM59.0655 37.7186L58.0054 38.2482L56.1124 37.6172V36.1248L52.7831 29.4671H54.6211L59.0657 35.6886V37.7186H59.0655Z" fill="#E30909"/>
<path d="M44.5213 15.7508H16.5898V2.95321C16.5898 1.32498 17.4442 0 18.4942 0H42.6168C43.6667 0 44.5211 1.32498 44.5211 2.95321V15.7508H44.5213Z" fill="#E30909"/>
<path d="M29.5053 7.99936C29.85 8.10853 30.1201 8.2924 30.3155 8.55096C30.5108 8.80378 30.6085 9.11693 30.6085 9.49042C30.6085 10.019 30.4016 10.427 29.9879 10.7143C29.58 10.9958 28.9824 11.1366 28.1952 11.1366H25.0752V5.10343H28.0228C28.7583 5.10343 29.3214 5.2442 29.7121 5.52575C30.1086 5.8073 30.3068 6.1894 30.3068 6.67206C30.3068 6.9651 30.235 7.22653 30.0914 7.45637C29.9535 7.68621 29.7581 7.8672 29.5053 7.99936ZM26.4628 6.15492V7.57703H27.8505C28.1952 7.57703 28.4567 7.5167 28.6348 7.39604C28.8129 7.27537 28.902 7.09725 28.902 6.86167C28.902 6.62609 28.8129 6.45084 28.6348 6.33592C28.4567 6.21526 28.1952 6.15492 27.8505 6.15492H26.4628ZM28.0918 10.0851C28.4595 10.0851 28.7353 10.0248 28.9192 9.90412C29.1088 9.78346 29.2036 9.59671 29.2036 9.3439C29.2036 8.844 28.833 8.59406 28.0918 8.59406H26.4628V10.0851H28.0918Z" fill="white"/>
<path d="M33.6479 11.24C33.171 11.24 32.7085 11.1768 32.2603 11.0504C31.8178 10.9183 31.4616 10.7488 31.1915 10.5419L31.6656 9.49042C31.9241 9.68003 32.2315 9.8323 32.5878 9.94721C32.944 10.0621 33.3003 10.1196 33.6565 10.1196C34.053 10.1196 34.346 10.0621 34.5357 9.94721C34.7253 9.82655 34.8201 9.66854 34.8201 9.47318C34.8201 9.32953 34.7626 9.21174 34.6477 9.11981C34.5385 9.02213 34.3949 8.94456 34.2168 8.8871C34.0444 8.82964 33.8088 8.76643 33.51 8.69748C33.0503 8.58831 32.674 8.47914 32.3809 8.36997C32.0879 8.26079 31.8351 8.08554 31.6225 7.84422C31.4156 7.60289 31.3122 7.28112 31.3122 6.87891C31.3122 6.52841 31.407 6.21238 31.5966 5.93083C31.7862 5.64354 32.0707 5.41658 32.4499 5.24995C32.8349 5.08332 33.3032 5 33.8548 5C34.2397 5 34.6161 5.04597 34.9838 5.1379C35.3516 5.22984 35.6733 5.36199 35.9491 5.53437L35.5182 6.59449C34.9608 6.27846 34.4035 6.12045 33.8461 6.12045C33.4554 6.12045 33.1653 6.18365 32.9756 6.31006C32.7918 6.43647 32.6998 6.6031 32.6998 6.80996C32.6998 7.01681 32.8061 7.17195 33.0187 7.27537C33.2371 7.37305 33.5675 7.47073 34.0099 7.56841C34.4696 7.67759 34.8459 7.78676 35.139 7.89593C35.432 8.0051 35.682 8.17748 35.8888 8.41306C36.1014 8.64864 36.2077 8.96754 36.2077 9.36975C36.2077 9.71451 36.11 10.0305 35.9147 10.3178C35.7251 10.5994 35.4378 10.8235 35.0528 10.9901C34.6678 11.1567 34.1995 11.24 33.6479 11.24Z" fill="white"/>
</svg>
