<svg width="65" height="43" viewBox="0 0 65 43" fill="none" xmlns="http://www.w3.org/2000/svg">
<path d="M64.1794 5.22258V5.97258H64.25V37.1227C64.25 39.6021 62.2568 41.5953 59.7774 41.5953H5.22258C2.73655 41.5953 0.75 39.5954 0.75 37.1933V5.22258C0.75 2.7432 2.7432 0.75 5.22258 0.75H59.7068C62.1862 0.75 64.1794 2.7432 64.1794 5.22258ZM60.0334 5.64604V4.89604H59.2834H5.64604H4.89604V5.64604V12.5863V13.3363H5.64604H59.2834H60.0334V12.5863V5.64604ZM4.89604 36.6992V37.4492H5.64604H59.2834H60.0334V36.6992V18.0554V17.3054H59.2834H5.64604H4.89604V18.0554V36.6992ZM53.2402 27.5244C53.2402 28.6629 52.3057 29.5974 51.1672 29.5974H37.7579C36.6194 29.5974 35.6849 28.6629 35.6849 27.5244C35.6849 26.386 36.6194 25.4514 37.7579 25.4514H51.1672C52.3057 25.4514 53.2402 26.386 53.2402 27.5244Z" fill="#E30909" stroke="white" stroke-width="1.5"/>
</svg>
